<?xml version="1.0" encoding="utf-8"?>
<!-- Generator: Adobe Illustrator 25.4.1, SVG Export Plug-In . SVG Version: 6.00 Build 0)  -->
<svg version="1.1" id="Layer_1" xmlns="http://www.w3.org/2000/svg" xmlns:xlink="http://www.w3.org/1999/xlink" x="0px" y="0px"
	 viewBox="0 0 300 300.2" style="enable-background:new 0 0 300 300.2;" xml:space="preserve">
<style type="text/css">
	.st0{fill:#8D33E5;}
	.st1{fill:#7000DF;}
	.st2{fill:#3F017F;}
	.st3{fill:#531B8C;}
	.st4{fill:#F4A900;}
	.st5{fill:#78B6E4;}
	.st6{fill:#20B5AC;}
	.st7{fill:#FFFFFF;}
</style>
<g>
	<path class="st0" d="M150,0.4c51.5,0,100,15.6,144.6,41.3l3.4,1.5l-1,3.5c-0.1,50.3-13.8,99.6-39.5,142.9
		c-25,44.2-61.2,81.1-105.1,106.7l-2.4,1.7l-2.6-1.8c-44.4-25.7-78.1-62-103.6-106.4S2.9,95.8,2.9,44.5l-0.4-2.4l1.7-1.4
		C48.7,15,98.5,0.1,149.9,0.1"/>
	<path class="st1" d="M296.2,40.3C251.8,14.5,201.4,0.7,150,0.5v295.7l3.3,2c44.2-25.8,80.9-62.7,106.4-107.2
		c25.8-44.2,39.4-94.3,39.6-145.5v-3.7L296.2,40.3z"/>
	<path class="st2" d="M299.8,45v-3.9l-3.3-1.9c-90.7-52.3-202.4-52.3-293.1,0l-3.4,2V45c0.2,104.6,56.1,201.1,146.7,253.3l3.3,1.9
		l3.3-1.9C243.9,246.1,299.8,149.6,300,45H299.8z M149.8,285.4C63.5,235,8.2,144.8,7.7,44.8C96-4.9,203.9-4.9,292.3,44.8
		C291.8,145,236.4,235,149.9,285.3L149.8,285.4z"/>
	<path class="st3" d="M150,285.3C63.5,235,8.2,144.8,7.7,44.8C51.1,20.4,100.1,7.6,150,7.5V0C98.5,0,47.9,13.5,3.3,39.2L0,41.1V45
		c0.3,104.5,56.1,201,146.6,253.3l3.3,1.9L150,285.3z"/>
	<path class="st2" d="M244.2,93.4c0-1.1-0.2-2.3-0.6-3.3c-3.4-9.7-8.3-18.7-14.7-26.7c-1.5-2.1-3.3-4-4.9-6l-1.3-1.5
		c-0.5-0.6-1.2-1.1-1.9-1.5c-1.4-0.8-2.9-1.2-4.5-1.2c-0.8,0.1-1.6,0.2-2.3,0.5c-0.4,0.1-0.7,0.3-1,0.4c0,0-54.6,29.6-63.1,34
		c-8.4-4.4-62.7-34.2-64-34.3c-0.7-0.3-1.5-0.4-2.3-0.5c-1.6,0-3.2,0.4-4.6,1.2c-0.7,0.4-1.3,0.8-1.9,1.4L76,57.5
		c-1.7,1.9-3.3,3.9-4.9,6C65,71.2,60.1,79.8,56.6,89c-2,4.3-0.9,9.5,2.7,12.5c0.2,0.2,0.4,0.4,0.7,0.5l0.7,0.5l1,0.7l8.6,5.3
		l17,10.6l17.1,10.7l14.2,8.5l0.2,60v10c0,0.6,0,1.3,0,1.9c0.1,1.1,0.4,2.3,0.8,3.3c0.9,2,2.3,3.7,4,5c1.8,1.3,3.7,2.2,5.8,2.7
		c2.1,0.5,4.3,1,6.5,1.3c9.2,1.3,18.5,1.3,27.7,0c3.3-0.5,4.2-0.7,6.4-1.2c2.2-0.5,4.2-1.4,5.9-2.8c1.7-1.3,3.1-3,4-5
		c0.4-1.1,0.7-2.2,0.8-3.3v-1.9c0,0,0.7-54.1,0.5-69.8l14-8.6l17.4-10.9l17.2-10.7l8.5-5.4C242,101.2,244.2,97.5,244.2,93.4
		L244.2,93.4z"/>
	<path class="st4" d="M125.1,135c0-5.1-1.1-10.1-3.3-14.6c-2.2-4.5-5.4-8.5-9.3-11.7c-11.2-9-28.7-12.2-45.7-8.5
		c-1.1,0.2-4.2-1.7-5.3-1.9c0,0-0.3-0.2,0.3,0.3s0.5,1,0.6,1.1l62.7,36L125.1,135z"/>
	<path class="st5" d="M180,95.6c13.3-5.2,24.9-18.7,30.2-35.2c0.4-1.2,2.5-1.5,3.3-2.3c0.3-0.2-0.7-1.3-0.4-1.5l-63.3,36.4l0.8,0.4
		c8.9,5.2,19.7,6,29.2,2.1L180,95.6z"/>
	<path class="st6" d="M173.7,136.7c-8.8,5.1-14.7,14.1-16,24.1c-2,14.2,3.9,30.9,15.5,43.5c0.9,0.9,0.8,2.7,1,3.9
		c0,0.3,0.4,0.3,0.7,0.5l0.3-72.9L173.7,136.7z"/>
	<path class="st2" d="M160.6,163.6c1.8-10.1,8.1-18.8,17.1-23.6l-2.6-4.1l-1.4,0.9c-4.3,2.5-8,6-10.8,10.2c-2.8,4.2-4.6,9-5.2,13.9
		c-1.7,12.4,2.6,26.8,11.6,38.8C162.5,189,159.4,176.3,160.6,163.6L160.6,163.6z"/>
	<path class="st2" d="M180.6,91.9c-9.6,3.5-20.3,2.3-29-3.1l-2.3,4.2l1.4,0.9c8.8,5,19.5,5.8,28.9,2c13.3-6,23.9-16.6,30-29.8
		c0-0.2-0.9-1.3-1.8,0.7C201.8,77.9,192.2,86.7,180.6,91.9L180.6,91.9z"/>
	<path class="st2" d="M108.9,110.9c7.6,6.2,11.7,15.6,11,25.4l4.8,1.5l1.5-1.6c0.3-10-4.1-22.8-12.1-29.3
		c-9.2-7.8-28.7-10.4-41.8-8.5c-0.5,0-0.7,0.8,2.7,0.7C87.4,98.9,99.4,103.1,108.9,110.9L108.9,110.9z"/>
	<path class="st7" d="M150,217.2c-6.8,0-13.5-0.9-20-2.6c-1.4-0.4-2.6-1.2-3.5-2.3c-0.9-1.1-1.4-2.5-1.4-3.9V135
		c0.1-10.2-4.5-19.8-12.5-26.2c-11.2-9-28.7-12.2-45.7-8.5c-0.8,0.2-1.7,0.2-2.6,0.1c-0.9-0.2-1.7-0.5-2.4-1c-1.5-0.9-2.6-2.4-3-4.1
		c-0.3-1.3-0.2-2.6,0.3-3.8c2.1-6.1,4.8-11.9,7.9-17.6c3.3-5.9,7.4-11.2,12.1-16c1-1,2.4-1.6,3.8-1.8c1.4-0.2,2.9,0.1,4.1,0.9
		l61.8,35.6l1.6,1c8.9,5.2,19.6,5.9,29.1,2.1c13.3-5.2,24.9-18.7,30.2-35.2c0.3-0.8,0.7-1.6,1.2-2.3c0.6-0.7,1.3-1.2,2.1-1.6
		c0.8-0.4,1.6-0.7,2.5-0.8c0.9-0.1,1.8,0,2.6,0.3c1.2,0.4,2.3,1.1,3.1,2.1c4.2,4.9,7.9,10.2,11.2,15.7c3.5,5.8,6.1,12.1,7.7,18.6
		c0.3,1.4,0.2,2.9-0.3,4.2c-0.6,1.3-1.5,2.4-2.8,3.1l-62.2,35.9l-1.7,1c-8.7,5.2-14.6,14.1-16,24.1c-2,14.2,3.9,30.9,15.5,43.5
		c0.8,0.9,1.4,2,1.6,3.1c0.5,2.4-0.3,4.9-2.2,6.4c-1,0.8-2.1,1.3-3.3,1.5C162.8,216.5,156.4,217.1,150,217.2z"/>
</g>
</svg>
